<svg width="24" height="24" viewBox="0 0 24 24" fill="none" xmlns="http://www.w3.org/2000/svg">
<g clip-path="url(#clip0_2054_363)">
<path d="M23.9904 12C23.9904 5.37188 18.6185 0 11.9904 0C5.36223 0 -0.00964355 5.37188 -0.00964355 12C-0.00964355 17.625 3.86692 22.35 9.09348 23.6484V15.6656H6.61848V12H9.09348V10.4203C9.09348 6.3375 10.9404 4.44375 14.9529 4.44375C15.7122 4.44375 17.0247 4.59375 17.5638 4.74375V8.0625C17.2825 8.03438 16.7904 8.01563 16.1763 8.01563C14.2075 8.01563 13.4482 8.76094 13.4482 10.6969V12H17.3669L16.6919 15.6656H13.4435V23.9109C19.3872 23.1938 23.9904 18.1359 23.9904 12Z" fill="#0866FF"/>
</g>
<defs>
<clipPath id="clip0_2054_363">
<rect width="24" height="24" fill="white" transform="translate(-0.00964355)"/>
</clipPath>
</defs>
</svg>
