<svg width="24" height="24" viewBox="0 0 24 24" fill="none" xmlns="http://www.w3.org/2000/svg">
<g clip-path="url(#clip0_2279_4)">
<path fill-rule="evenodd" clip-rule="evenodd" d="M2.4 0H21.6C22.9256 0 24 1.07443 24 2.4V21.6C24 22.9256 22.9256 24 21.6 24H2.4C1.07443 24 0 22.9256 0 21.6V2.4C0 1.07443 1.07443 0 2.4 0Z" fill="#010101"/>
<path fill-rule="evenodd" clip-rule="evenodd" d="M15.07 22.0802C15.8003 22.0802 16.3924 21.493 16.3924 20.7687C16.3924 20.0444 15.8003 19.457 15.07 19.457H14.8708C15.6011 19.457 16.1932 20.0444 16.1932 20.7687C16.1932 21.493 15.6011 22.0802 14.8708 22.0802H15.07Z" fill="#EE1D51"/>
<path fill-rule="evenodd" clip-rule="evenodd" d="M14.8528 19.457H14.6536C13.9233 19.457 13.3312 20.0444 13.3312 20.7687C13.3312 21.493 13.9233 22.0802 14.6536 22.0802H14.8528C14.1224 22.0802 13.5304 21.493 13.5304 20.7687C13.5304 20.0444 14.1224 19.457 14.8528 19.457Z" fill="#66C8CF"/>
<path d="M14.8619 21.4063C15.217 21.4063 15.505 21.1208 15.505 20.7686C15.505 20.4164 15.217 20.1309 14.8619 20.1309C14.5067 20.1309 14.2188 20.4164 14.2188 20.7686C14.2188 21.1208 14.5067 21.4063 14.8619 21.4063Z" fill="#010101"/>
<path fill-rule="evenodd" clip-rule="evenodd" d="M4.80005 18.8643V19.5291H5.5788V22.0623H6.35784V19.547H6.99173L7.20907 18.8643H4.80005ZM11.1759 18.8643V19.5291H11.9546V22.0623H12.7337V19.547H13.3676L13.5849 18.8643H11.1759ZM7.35413 19.2415C7.35413 19.0332 7.52415 18.8643 7.73419 18.8643C7.94443 18.8643 8.11464 19.0332 8.11464 19.2415C8.11464 19.4499 7.94453 19.6188 7.73419 19.6188C7.52415 19.6187 7.35413 19.4499 7.35413 19.2415ZM7.35413 19.8884H8.11464V22.0623H7.35413V19.8884ZM8.44075 18.8643V22.0623H9.20155V21.2359L9.43704 21.0201L10.1796 22.0803H10.9946L9.92587 20.5351L10.8859 19.6008H9.96216L9.20155 20.3553V18.8643H8.44075ZM16.6459 18.8643V22.0623H17.4068V21.2359L17.6422 21.0201L18.3849 22.0803H19.2L18.1313 20.5351L19.0913 19.6008H18.1676L17.4068 20.3553V18.8643H16.6459Z" fill="white"/>
<path fill-rule="evenodd" clip-rule="evenodd" d="M15.472 7.79426C16.5227 8.54489 17.8098 8.98659 19.1999 8.98659V6.31289C18.9368 6.31299 18.6744 6.28555 18.417 6.231V8.33561C17.027 8.33561 15.7401 7.89391 14.6892 7.14329V12.5994C14.6892 15.3289 12.4754 17.5414 9.74467 17.5414C8.72583 17.5414 7.77879 17.2336 6.99207 16.7056C7.88995 17.6231 9.14208 18.1924 10.5274 18.1924C13.2583 18.1924 15.4721 15.9799 15.4721 13.2503L15.472 7.79426ZM16.4378 5.09686C15.9009 4.51058 15.5484 3.75286 15.472 2.91516V2.57129H14.7301C14.9169 3.63593 15.5538 4.54553 16.4378 5.09686ZM8.7192 14.6111C8.41925 14.218 8.2571 13.737 8.25783 13.2426C8.25783 11.9942 9.27043 10.982 10.5197 10.982C10.7525 10.9819 10.9839 11.0176 11.2058 11.0879V8.35452C10.9465 8.31901 10.6848 8.30396 10.4232 8.3095V10.437C10.2012 10.3667 9.96968 10.331 9.7368 10.3312C8.48755 10.3312 7.47504 11.3433 7.47504 12.5918C7.47504 13.4745 7.98115 14.2388 8.7192 14.6111Z" fill="#EE1D52"/>
<path fill-rule="evenodd" clip-rule="evenodd" d="M14.6891 7.14329C15.74 7.89391 17.027 8.33561 18.417 8.33561V6.231C17.6411 6.06588 16.9543 5.66057 16.4378 5.09686C15.5538 4.54553 14.9168 3.63593 14.7301 2.57129H12.7814V13.2502C12.777 14.4952 11.7661 15.5032 10.5196 15.5032C9.78497 15.5032 9.13236 15.1532 8.71908 14.6111C7.98104 14.2388 7.47492 13.4745 7.47492 12.5918C7.47492 11.3433 8.48744 10.3312 9.73668 10.3312C9.97601 10.3312 10.2067 10.3684 10.4231 10.437V8.3095C7.74036 8.36489 5.58276 10.5558 5.58276 13.2503C5.58276 14.5954 6.12008 15.8148 6.99204 16.7057C7.77876 17.2337 8.7258 17.5415 9.74465 17.5415C12.4754 17.5415 14.6891 15.3289 14.6891 12.5995V7.14329Z" fill="white"/>
<path fill-rule="evenodd" clip-rule="evenodd" d="M18.4171 6.23051V5.66143C17.7174 5.66248 17.0315 5.46663 16.4378 5.09627C16.9633 5.67129 17.6553 6.06784 18.4171 6.23051ZM14.7302 2.5708C14.7124 2.46907 14.6987 2.36665 14.6892 2.26379V1.91992H11.9985V12.599C11.9942 13.8438 10.9834 14.8518 9.73675 14.8518C9.37071 14.8518 9.0252 14.765 8.71915 14.6106C9.13243 15.1528 9.78504 15.5027 10.5196 15.5027C11.7661 15.5027 12.7771 14.4947 12.7815 13.2497V2.5708H14.7302ZM10.4232 8.30901V7.70315C10.1984 7.67241 9.97174 7.65705 9.74482 7.65717C7.01381 7.65717 4.80005 9.86978 4.80005 12.599C4.80005 14.3101 5.6701 15.818 6.99221 16.7051C6.12024 15.8142 5.58293 14.5948 5.58293 13.2497C5.58293 10.5553 7.74043 8.3644 10.4232 8.30901Z" fill="#69C9D0"/>
<path fill-rule="evenodd" clip-rule="evenodd" d="M14.8707 22.0802C15.601 22.0802 16.1931 21.493 16.1931 20.7687C16.1931 20.0444 15.601 19.457 14.8707 19.457H14.8527C14.1224 19.457 13.5304 20.0444 13.5304 20.7687C13.5304 21.493 14.1224 22.0802 14.8527 22.0802H14.8707ZM14.2187 20.7687C14.2187 20.4164 14.5067 20.131 14.8619 20.131C15.2168 20.131 15.5048 20.4164 15.5048 20.7687C15.5048 21.121 15.2168 21.4066 14.8619 21.4066C14.5067 21.4065 14.2187 21.121 14.2187 20.7687Z" fill="white"/>
</g>
<defs>
<clipPath id="clip0_2279_4">
<rect width="24" height="24" fill="white"/>
</clipPath>
</defs>
</svg>
