<svg width="19" height="19" viewBox="0 0 19 19" fill="none" xmlns="http://www.w3.org/2000/svg">
<path d="M6.11934 0.912751C5.83359 0.222516 5.08027 -0.144866 4.36035 0.0518133L1.09473 0.942438C0.449023 1.12056 0 1.70689 0 2.37486C0 11.5557 7.44414 18.9999 16.625 18.9999C17.293 18.9999 17.8793 18.5508 18.0574 17.9051L18.948 14.6395C19.1447 13.9196 18.7773 13.1663 18.0871 12.8805L14.5246 11.3962C13.9197 11.1438 13.2184 11.3182 12.8064 11.8266L11.3072 13.6561C8.69473 12.4204 6.57949 10.3051 5.34375 7.69263L7.17324 6.19713C7.68164 5.7815 7.85605 5.08384 7.60371 4.47896L6.11934 0.916462V0.912751Z" fill="white"/>
</svg>
