<svg width="90" height="90" viewBox="0 0 90 90" fill="none" xmlns="http://www.w3.org/2000/svg">
<g clip-path="url(#clip0_2037_145)">
<path d="M82.4942 3.39258L86.6075 7.50586C91.002 11.9004 91.002 19.0195 86.6075 23.4141L76.6934 33.3281L56.6543 13.3066L66.5684 3.39258C70.9629 -1.00195 78.0821 -1.00195 82.4766 3.39258H82.4942ZM7.89263 62.0859L52.6817 17.2793L72.7208 37.3184L27.9141 82.1074C26.7364 83.2852 25.2598 84.1465 23.6602 84.6035L5.37896 89.8242C3.90239 90.2461 2.32036 89.8418 1.23052 88.752C0.140674 87.6621 -0.263623 86.0801 0.158252 84.6035L5.37896 66.3223C5.83599 64.7051 6.69731 63.2461 7.87505 62.0684L7.89263 62.0859ZM43.8399 18.1758L18.1758 43.8398L2.81255 28.459C-0.474561 25.1719 -0.474561 19.8281 2.81255 16.5234L16.5411 2.8125C19.8282 -0.474609 25.1719 -0.474609 28.4766 2.8125L31.9571 6.29297C31.9043 6.3457 31.834 6.39844 31.7813 6.45117L20.5313 17.7012C19.4415 18.791 19.4415 20.584 20.5313 21.6738C21.6211 22.7637 23.4141 22.7637 24.504 21.6738L35.754 10.4238C35.8067 10.3711 35.8594 10.3008 35.9122 10.248L43.8399 18.1758ZM71.8243 46.1602L79.752 54.0879C79.6993 54.1406 79.629 54.1934 79.5762 54.2461L68.3262 65.4961C67.2364 66.5859 67.2364 68.3789 68.3262 69.4688C69.4161 70.5586 71.209 70.5586 72.2989 69.4688L83.5489 58.2188C83.6016 58.166 83.6544 58.0957 83.7071 58.043L87.1876 61.541C90.4747 64.8281 90.4747 70.1719 87.1876 73.4766L73.459 87.1875C70.1719 90.4746 64.8282 90.4746 61.5235 87.1875L46.1602 71.8242L71.8243 46.1602Z" fill="white"/>
</g>
<defs>
<clipPath id="clip0_2037_145">
<rect width="90" height="90" fill="white"/>
</clipPath>
</defs>
</svg>
