<svg width="90" height="90" viewBox="0 0 90 90" fill="none" xmlns="http://www.w3.org/2000/svg">
<g clip-path="url(#clip0_2037_133)">
<path d="M89.9688 44.9121C89.9688 48.0762 87.625 50.5547 84.9688 50.5547H79.9688L80.0781 78.7148C80.0781 79.1895 80.0469 79.6641 80 80.1387V82.9863C80 86.8711 77.2031 90.0176 73.75 90.0176H71.25C71.0781 90.0176 70.9062 90.0176 70.7344 90C70.5156 90.0176 70.2969 90.0176 70.0781 90.0176L65 90H61.25C57.7969 90 55 86.8535 55 82.9688V78.75V67.5C55 64.3887 52.7656 61.875 50 61.875H40C37.2344 61.875 35 64.3887 35 67.5V78.75V82.9688C35 86.8535 32.2031 90 28.75 90H25H20.0156C19.7812 90 19.5469 89.9824 19.3125 89.9648C19.125 89.9824 18.9375 90 18.75 90H16.25C12.7969 90 10 86.8535 10 82.9688V63.2812C10 63.123 10 62.9473 10.0156 62.7891V50.5371H5.01562C2.20312 50.5371 0.015625 48.0762 0.015625 44.8945C0.015625 43.3125 0.484375 41.9062 1.57812 40.6758L41.625 1.40625C42.7188 0.175781 43.9688 0 45.0625 0C46.1562 0 47.4062 0.351562 48.3438 1.23047L88.25 40.6934C89.5 41.9238 90.125 43.3301 89.9688 44.9121Z" fill="white"/>
</g>
<defs>
<clipPath id="clip0_2037_133">
<rect width="90" height="90" fill="white"/>
</clipPath>
</defs>
</svg>
