<svg width="90" height="90" viewBox="0 0 90 90" fill="none" xmlns="http://www.w3.org/2000/svg">
<g clip-path="url(#clip0_2037_137)">
<path d="M13.8164 0.878944C12.1465 -0.421837 9.77341 -0.263634 8.2617 1.23051L1.23045 8.26176C-0.263695 9.7559 -0.421899 12.1289 0.861305 13.8164L14.9238 32.0977C15.7148 33.1348 16.9629 33.75 18.2636 33.75H27.7734L46.9336 52.9102C44.3496 58.0079 45.1758 64.4063 49.4472 68.6602L69.1347 88.3477C71.332 90.545 74.9004 90.545 77.0976 88.3477L88.3476 77.0977C90.5449 74.9004 90.5449 71.3321 88.3476 69.1348L68.6601 49.4473C64.4062 45.1934 58.0078 44.3496 52.9101 46.9336L33.75 27.7735V18.2637C33.75 16.9454 33.1347 15.7149 32.0976 14.9239L13.8164 0.878944ZM3.49802 69.627C1.2656 71.8594 -2.36076e-05 74.9004 -2.36076e-05 78.0645C-2.36076e-05 84.6563 5.34373 90 11.9355 90C15.0996 90 18.1406 88.7344 20.373 86.502L41.0801 65.795C39.709 62.1211 39.498 58.1309 40.4472 54.3516L29.6015 43.5059L3.49802 69.627ZM90 25.3125C90 23.4668 89.8066 21.6739 89.4375 19.9512C89.0156 17.9825 86.6074 17.4727 85.1836 18.8965L73.9511 30.1289C73.4238 30.6563 72.7031 30.9551 71.9648 30.9551L61.875 30.9375C60.3281 30.9375 59.0625 29.6719 59.0625 28.125V18.0352C59.0625 17.2969 59.3613 16.5762 59.8887 16.0489L71.1211 4.81644C72.5449 3.39262 72.0351 0.984413 70.0664 0.562538C68.3261 0.193397 66.5332 3.78955e-05 64.6875 3.78955e-05C50.7129 3.78955e-05 39.375 11.3379 39.375 25.3125V25.4532L54.3691 40.4473C60.6972 38.8477 67.6933 40.5352 72.6504 45.4922L75.4101 48.252C84.0234 44.209 90 35.4551 90 25.3125ZM9.84373 75.9375C9.84373 74.8187 10.2882 73.7456 11.0794 72.9544C11.8705 72.1633 12.9436 71.7188 14.0625 71.7188C15.1814 71.7188 16.2544 72.1633 17.0456 72.9544C17.8368 73.7456 18.2812 74.8187 18.2812 75.9375C18.2812 77.0564 17.8368 78.1295 17.0456 78.9206C16.2544 79.7118 15.1814 80.1563 14.0625 80.1563C12.9436 80.1563 11.8705 79.7118 11.0794 78.9206C10.2882 78.1295 9.84373 77.0564 9.84373 75.9375Z" fill="white"/>
</g>
<defs>
<clipPath id="clip0_2037_137">
<rect width="90" height="90" fill="white"/>
</clipPath>
</defs>
</svg>
