<svg width="90" height="90" viewBox="0 0 90 90" fill="none" xmlns="http://www.w3.org/2000/svg">
<path d="M40 5.625C37.2344 5.625 35 8.13867 35 11.25V11.6543V29.1621C35 30.1465 34.2969 30.9375 33.4219 30.9375C32.8594 30.9375 32.3281 30.6035 32.0469 30.041L24.5469 15.293C12.9688 21.709 5 35.1211 5 50.625V61.875H85V50.2031C84.8594 34.875 76.9219 21.6562 65.4531 15.293L57.9531 30.041C57.6719 30.6035 57.1406 30.9375 56.5781 30.9375C55.7031 30.9375 55 30.1465 55 29.1621V11.6543V11.25C55 8.13867 52.7656 5.625 50 5.625H40ZM2.59375 67.5C1.15625 67.5 0 68.8008 0 70.418C0 71.2441 0.3125 72.0352 0.90625 72.5098C4.29688 75.3047 17.4688 84.375 45 84.375C72.5312 84.375 85.7031 75.3047 89.0938 72.5098C89.6875 72.0176 90 71.2441 90 70.418C90 68.8008 88.8438 67.5 87.4062 67.5H2.59375Z" fill="white"/>
</svg>
